<?xml version="1.0" encoding="UTF-8"?>
<svg version="1.1" xmlns="http://www.w3.org/2000/svg" width="200" height="200">
<path d="M0 0 C66 0 132 0 200 0 C200 66 200 132 200 200 C134 200 68 200 0 200 C0 134 0 68 0 0 Z " fill="#FBFCFB" transform="translate(0,0)"/>
<path d="M0 0 C66 0 132 0 200 0 C200 66 200 132 200 200 C134 200 68 200 0 200 C0 134 0 68 0 0 Z M11 32 C6.40598952 39.05035778 5.27327989 45.14648126 5.36889648 53.44140625 C5.36174118 54.53871063 5.35458588 55.63601501 5.34721375 56.76657104 C5.33041283 60.36564767 5.34968055 63.96346353 5.37109375 67.5625 C5.37026427 70.08016055 5.3678019 72.59782104 5.36378479 75.11547852 C5.36093266 80.38083289 5.37503533 85.64586528 5.40307617 90.91113281 C5.43512142 96.97457119 5.43510747 103.03736606 5.4178614 109.10085011 C5.40192652 114.96460295 5.40887528 120.82812089 5.42579842 126.69186401 C5.43096261 129.17324297 5.43051997 131.65464043 5.42425346 134.13601685 C5.41877181 137.61060757 5.43927268 141.08412544 5.46655273 144.55859375 C5.46002686 145.57291473 5.45350098 146.58723572 5.44677734 147.6322937 C5.54845102 155.29117453 7.0396885 162.31459196 11.9296875 168.40234375 C12.57164063 168.90894531 13.21359375 169.41554687 13.875 169.9375 C14.51179687 170.46214844 15.14859375 170.98679688 15.8046875 171.52734375 C22.40463954 175.95471372 27.3934553 176.44168292 35.17089844 176.41992188 C36.28712585 176.42839142 37.40335327 176.43686096 38.55340576 176.44558716 C42.23884519 176.46896117 45.92386708 176.46997899 49.609375 176.46875 C52.17759365 176.4758525 54.74581072 176.48355163 57.31402588 176.49182129 C62.6973577 176.50526796 68.08052695 176.50701616 73.46386719 176.50097656 C79.66586294 176.49434575 85.86726245 176.51716606 92.06913733 176.55429029 C98.05674019 176.58881767 104.04402904 176.59531351 110.03174591 176.59120178 C112.56896996 176.59289092 115.10620201 176.60251342 117.64336395 176.62034607 C121.19989144 176.64258829 124.75499899 176.63280431 128.31152344 176.61523438 C129.35083008 176.62849762 130.39013672 176.64176086 131.4609375 176.65542603 C139.30841292 176.56577235 146.05453743 174.67273721 151.91723251 169.21529388 C158.31386741 162.26104463 159.44761891 155.93086332 159.43579102 146.73730469 C159.45090477 145.04833321 159.45090477 145.04833321 159.46632385 143.32524109 C159.49479174 139.60735102 159.50068021 135.88986724 159.50390625 132.171875 C159.51354906 129.58123611 159.52364167 126.99059885 159.53416443 124.39996338 C159.55212361 118.96955891 159.55781444 113.53931498 159.5559082 108.10888672 C159.55410828 101.85227353 159.58572332 95.59643833 159.63313919 89.34002185 C159.67726624 83.30008121 159.68786772 77.26055927 159.68607903 71.2204361 C159.68961054 68.6608691 159.70283178 66.10129585 159.72607613 63.54183197 C159.75560621 59.95399735 159.74679439 56.36814273 159.72875977 52.78027344 C159.74561829 51.73161606 159.76247681 50.68295868 159.77984619 49.6025238 C159.68428967 42.08820227 157.67128481 36.91147918 153 31 C145.1273263 23.53987088 137.43288261 22.7001557 126.95922852 22.70947266 C125.8689032 22.70275543 124.77857788 22.69603821 123.6552124 22.68911743 C120.06306358 22.67017175 116.47110187 22.66621521 112.87890625 22.6640625 C110.37458724 22.65763322 107.87026898 22.65090476 105.36595154 22.64389038 C100.12147819 22.63192694 94.87705208 22.62812284 89.63256836 22.62939453 C83.58567614 22.63059618 77.53914068 22.6094811 71.49233872 22.5779072 C65.65587284 22.54852685 59.81954741 22.54142042 53.98301506 22.54261398 C51.50833617 22.54025718 49.0336545 22.53142925 46.5590229 22.51594925 C43.09577068 22.4963096 39.6334336 22.50211984 36.17016602 22.51416016 C35.15329208 22.50292114 34.13641815 22.49168213 33.08872986 22.48010254 C24.46989438 22.55607678 16.81019249 25.29222093 11 32 Z " fill="#FDFDFD" transform="translate(0,0)"/>
<path d="M0 0 C1.22614014 0.00942627 2.45228027 0.01885254 3.71557617 0.02856445 C12.88560716 0.18082203 21.33490758 0.93223167 30.1875 3.375 C30.83493164 3.55192383 31.48236328 3.72884766 32.14941406 3.91113281 C45.10941255 7.54847606 55.27754929 13.19196624 63.1875 24.375 C64.949057 28.51465896 65.40093713 31.89282019 65.1875 36.375 C64.630625 35.611875 64.07375 34.84875 63.5 34.0625 C61.22070631 31.41359112 59.25150128 29.99211178 56.1875 28.375 C56.27 29.57125 56.3525 30.7675 56.4375 32 C56.42953716 36.50696864 55.11985061 38.88788035 52.1875 42.375 C47.76644737 46.375 47.76644737 46.375 45.1875 46.375 C44.6925 33.505 44.6925 33.505 44.1875 20.375 C43.5697227 28.84122026 43.5697227 28.84122026 42.96118164 37.30810547 C42.88246826 38.35885254 42.80375488 39.40959961 42.72265625 40.4921875 C42.644104 41.57097168 42.56555176 42.64975586 42.48461914 43.76123047 C42.1875 46.375 42.1875 46.375 41.1875 48.375 C42.5075 48.045 43.8275 47.715 45.1875 47.375 C45.23237549 48.09453857 45.27725098 48.81407715 45.32348633 49.55541992 C45.73226047 70.65943011 45.73226047 70.65943011 52.1875 90.375 C55.20528937 91.88389469 56.81072637 91.87526276 60.1875 91.375 C63.10254898 89.29852675 65.60846015 86.84812445 68.1875 84.375 C69.84401812 83.02907903 71.50556068 81.6890151 73.1875 80.375 C73.67820693 90.18913866 72.46111729 99.95935916 65.9140625 107.68359375 C61.65100212 111.85984974 57.64970456 114.62035153 51.5625 114.9375 C47.16266378 114.65730389 44.52886875 113.3278375 41.1875 110.375 C34.9767663 102.61158288 34.80128038 94.80771185 34.8125 85.25 C34.81121094 84.11449707 34.80992188 82.97899414 34.80859375 81.80908203 C34.94117138 71.02057766 36.69813383 60.84367381 39.1875 50.375 C38.41792969 50.57996094 37.64835937 50.78492188 36.85546875 50.99609375 C23.77889047 54.06343927 10.5681631 54.11109022 -2.8125 54.375 C-3.00827637 55.77238403 -3.00827637 55.77238403 -3.20800781 57.19799805 C-3.70662387 60.71996514 -4.21476705 64.24030244 -4.72900391 67.76000977 C-4.94788626 69.27119536 -5.16317574 70.78290661 -5.37451172 72.29516602 C-9.4987746 101.74162115 -9.4987746 101.74162115 -19.5 110.8125 C-23.40560858 113.45142472 -25.83015792 113.56509694 -30.5625 113.625 C-32.38007812 113.66367188 -32.38007812 113.66367188 -34.234375 113.703125 C-39.49352073 113.22084526 -42.70643425 111.31275139 -46.6875 107.9375 C-49.64353022 104.10135722 -49.44757354 100.00915745 -49.22265625 95.33203125 C-48.17018628 87.74422393 -43.9943097 83.317415 -38.953125 77.828125 C-32.83552606 70.81744592 -28.41957252 62.97568322 -24.4375 54.625 C-24.10363281 53.92826172 -23.76976563 53.23152344 -23.42578125 52.51367188 C-19.62145328 44.25530561 -17.13718177 35.36421823 -19.3125 26.2890625 C-20.3538436 23.48453484 -21.67064179 21.51242514 -23.8125 19.4375 C-29.14839464 17.54770398 -34.79324895 17.18359233 -40.12890625 19.2890625 C-44.64169544 21.94364437 -47.64867867 25.25244493 -50.8125 29.375 C-51.1425 29.375 -51.4725 29.375 -51.8125 29.375 C-52.39512348 24.71401216 -52.0694792 22.17972217 -49.3125 18.3125 C-37.1398983 3.61458 -18.23763272 -0.21845257 0 0 Z " fill="#6BA93D" transform="translate(71.8125,51.625)"/>
<path d="M0 0 C0.94466629 -0.00708481 1.88933258 -0.01416962 2.86262512 -0.02146912 C4.39940163 -0.01775299 4.39940163 -0.01775299 5.96722412 -0.01396179 C7.05565109 -0.01907272 8.14407806 -0.02418365 9.26548767 -0.02944946 C12.86371359 -0.04334913 16.46174798 -0.04238801 20.05999756 -0.04008484 C22.56477937 -0.04397228 25.06956052 -0.04830705 27.57434082 -0.05307007 C32.82657497 -0.06053362 38.07875965 -0.06037905 43.33099365 -0.05497742 C49.38458258 -0.04894682 55.43793855 -0.06122728 61.49148774 -0.08254749 C67.33221361 -0.10235505 73.17284892 -0.10532894 79.01360321 -0.10181236 C81.49023739 -0.10232473 83.96687535 -0.10754664 86.44348907 -0.11762428 C89.9138207 -0.13000959 93.38361928 -0.12318329 96.85394287 -0.11161804 C97.87036362 -0.11926178 98.88678436 -0.12690552 99.93400574 -0.13478088 C108.5941024 -0.07123686 116.16077124 1.38130799 122.61232948 7.48821259 C128.68520873 14.40136766 129.90324478 20.8857324 129.81634521 29.87983704 C129.82510681 31.0078624 129.83386841 32.13588776 129.84289551 33.2980957 C129.86479507 37.00477745 129.85036878 40.71025379 129.83343506 44.41694641 C129.83680586 47.00569384 129.84166068 49.59443973 129.84793091 52.18318176 C129.85528954 57.59997649 129.84511028 63.0163232 129.82122803 68.43305969 C129.79402125 74.6755084 129.80283734 80.91714032 129.83036005 87.15956926 C129.85587527 93.19047756 129.85305906 99.22098966 129.83845139 105.25195312 C129.83512481 107.80673335 129.83917796 110.36153455 129.85084915 112.91629028 C129.8636008 116.49193398 129.84411706 120.06602706 129.81634521 123.64155579 C129.82646637 124.68909531 129.83658752 125.73663483 129.84701538 126.81591797 C129.73587236 134.57135897 127.81642129 140.41051625 122.4140873 146.11374664 C115.28487905 152.81264033 108.32220793 153.70877944 98.88494873 153.69648743 C97.76857529 153.70656326 96.65220184 153.7166391 95.5019989 153.72702026 C91.82201036 153.75544985 88.14243275 153.76137443 84.46234131 153.76460266 C81.89555189 153.77424725 79.32876412 153.78433999 76.76197815 153.79486084 C71.38462804 153.8128098 66.00744002 153.81851194 60.63006592 153.81660461 C54.43534496 153.81480388 48.24140906 153.84643899 42.04688662 153.8938356 C36.06407434 153.93796295 30.08168469 153.94856419 24.09868813 153.94677544 C21.56424059 153.95030632 19.02978671 153.96352403 16.49544334 153.98677254 C12.94363398 154.01630463 9.3938244 154.00749054 5.84197998 153.98945618 C4.28537659 154.01474396 4.28537659 154.01474396 2.69732666 154.0405426 C-5.4838224 153.9354593 -11.33182326 151.25866456 -17.44884968 145.82262516 C-23.80781945 138.8965731 -24.2760334 130.92925201 -24.25054932 122.04634094 C-24.25901886 120.94932861 -24.2674884 119.85231628 -24.2762146 118.72206116 C-24.29952456 115.1124243 -24.30060814 111.5032152 -24.29937744 107.89350891 C-24.3064826 105.37298921 -24.31418212 102.85247112 -24.32244873 100.33195496 C-24.33587977 95.05475015 -24.33765062 89.77765464 -24.331604 84.5004425 C-24.32496712 78.42223265 -24.34782422 72.34463023 -24.38491774 66.26654351 C-24.41944552 60.39321601 -24.4259412 54.52012556 -24.42182922 48.64670944 C-24.42351775 46.15972459 -24.43313432 43.67273153 -24.45097351 41.18581009 C-24.47321881 37.70133641 -24.46343117 34.21831156 -24.44586182 30.73384094 C-24.45912506 29.71637787 -24.47238831 28.69891479 -24.48605347 27.65061951 C-24.39142568 19.53422546 -22.16745464 12.82607342 -16.54937744 6.82319641 C-15.45109619 6.04975891 -15.45109619 6.04975891 -14.33062744 5.26069641 C-13.59843994 4.72444641 -12.86625244 4.18819641 -12.11187744 3.63569641 C-8.1095707 1.22334714 -4.68290206 0.01176666 0 0 Z M-16.39312744 14.44819641 C-18.26225632 18.10518769 -18.95668204 20.80498786 -18.97779846 24.85754395 C-18.98495377 25.80090607 -18.99210907 26.74426819 -18.9994812 27.71621704 C-19.0021701 28.74949631 -19.00485901 29.78277557 -19.00762939 30.84736633 C-19.01420059 31.93710754 -19.02077179 33.02684875 -19.02754211 34.14961243 C-19.04728586 37.76346401 -19.05894063 41.37727401 -19.06890869 44.99116516 C-19.07298422 46.22510828 -19.07705975 47.4590514 -19.08125877 48.73038673 C-19.09997293 54.58873588 -19.11453689 60.44706868 -19.12287074 66.30544204 C-19.13263274 73.05543067 -19.1589262 79.80509046 -19.19937164 86.55496329 C-19.23324763 92.41062477 -19.24502217 98.26617662 -19.24907494 104.12192726 C-19.25394392 106.60777833 -19.26556668 109.09362581 -19.28411293 111.57941246 C-19.30848108 115.06222496 -19.30754294 118.54418204 -19.30059814 122.02705383 C-19.3134082 123.05021194 -19.32621826 124.07337006 -19.3394165 125.12753296 C-19.28698643 132.35695192 -18.01041505 138.0989076 -12.76031494 143.31929016 C-12.08226807 143.77432922 -11.40422119 144.22936829 -10.70562744 144.69819641 C-9.68082275 145.40782532 -9.68082275 145.40782532 -8.63531494 146.13179016 C-5.62293155 148.01615986 -3.8530229 148.3896222 -0.31607056 148.40786743 C0.63433105 148.41502274 1.58473267 148.42217804 2.56393433 148.42955017 C3.61015961 148.43223907 4.65638489 148.43492798 5.73431396 148.43769836 C6.83366272 148.44426956 7.93301147 148.45084076 9.06567383 148.45761108 C12.71742821 148.47738105 16.36914136 148.48901621 20.02093506 148.49897766 C21.88977419 148.50509095 21.88977419 148.50509095 23.79636765 148.51132774 C29.71238482 148.53005158 35.62838885 148.54461191 41.54442847 148.55293971 C48.36347639 148.56269778 55.18219846 148.58897698 62.00113165 148.62944061 C67.9139086 148.66331664 73.82660638 148.67509131 79.73948288 148.67914391 C82.2504535 148.68401369 84.76142055 148.69563871 87.27232742 148.7141819 C90.79116896 148.73854896 94.30916375 148.73761193 97.82806396 148.73066711 C98.86214386 148.74347717 99.89622375 148.75628723 100.9616394 148.76948547 C107.8327666 148.72016175 113.56414451 147.69004099 118.69098854 142.81331348 C122.38525572 138.57520943 124.41012206 135.09162653 124.45025635 129.47439575 C124.46167664 128.51427582 124.47309692 127.55415588 124.48486328 126.56494141 C124.487099 125.51812698 124.48933472 124.47131256 124.49163818 123.39277649 C124.50156799 122.2849884 124.5114978 121.17720032 124.52172852 120.0358429 C124.55096149 116.36727927 124.5645749 112.69888868 124.57562256 109.03022766 C124.58712764 106.47917679 124.59864308 103.92812597 124.61016846 101.3770752 C124.62850029 96.70875252 124.64110114 92.04048169 124.64716196 87.37213212 C124.65611133 80.51782306 124.69115426 73.66431409 124.74916315 66.8102482 C124.79775971 60.86009138 124.81305809 54.91013183 124.81651306 48.9597683 C124.82255675 46.43564694 124.83858241 43.91152857 124.86488342 41.387537 C124.8991138 37.84961043 124.89521925 34.31361538 124.88226318 30.77558899 C124.90069275 29.73889572 124.91912231 28.70220245 124.93811035 27.63409424 C124.85554452 20.4124212 123.25009173 15.5154947 118.16937256 10.26069641 C111.91290261 5.13372676 105.79190275 4.53123325 97.93328857 4.59785461 C96.84588379 4.58748672 95.758479 4.57711884 94.63812256 4.56643677 C91.06611706 4.53947241 87.49534852 4.54900705 83.92327881 4.56147766 C81.42660685 4.55556452 78.92993773 4.54831603 76.43327332 4.53979492 C70.54148515 4.52641706 64.65013675 4.53945833 58.75838655 4.56135005 C54.07473803 4.5760366 49.39175976 4.56259613 44.70819092 4.53340149 C38.22669105 4.49345162 31.74587044 4.48306156 25.26426506 4.49674034 C22.80240664 4.49822258 20.34052454 4.49058887 17.87872505 4.47348976 C14.42999267 4.45342289 10.98348278 4.47199388 7.53485107 4.50019836 C6.02503914 4.47962372 6.02503914 4.47962372 4.48472595 4.45863342 C-3.74402029 4.59244798 -11.52082552 7.43805949 -16.39312744 14.44819641 Z " fill="#060606" transform="translate(29.83062744140625,22.739303588867188)"/>
<path d="M0 0 C0.66 0 1.32 0 2 0 C2.04487549 0.71953857 2.08975098 1.43907715 2.13598633 2.18041992 C2.54476047 23.28443011 2.54476047 23.28443011 9 43 C12.01778937 44.50889469 13.62322637 44.50026276 17 44 C19.91504898 41.92352675 22.42096015 39.47312445 25 37 C26.65651812 35.65407903 28.31806068 34.3140151 30 33 C30.49070693 42.81413866 29.27361729 52.58435916 22.7265625 60.30859375 C18.46350212 64.48484974 14.46220456 67.24535153 8.375 67.5625 C3.97516378 67.28230389 1.34136875 65.9528375 -2 63 C-8.23819454 55.20225683 -8.38898349 47.350364 -8.375 37.75 C-8.37338867 36.60571533 -8.37177734 35.46143066 -8.37011719 34.2824707 C-8.26788089 27.10337809 -7.71552597 20.21921981 -6.25 13.1875 C-6.09321777 12.42469727 -5.93643555 11.66189453 -5.77490234 10.87597656 C-4.71196648 6.39798982 -3.26252277 3.26894506 0 0 Z " fill="#293E96" transform="translate(115,99)"/>
<path d="M0 0 C4.21723471 1.95066849 7.29824647 4.16450946 9.6484375 8.27734375 C10.27810292 12.05533625 10.00978278 13.67973424 8.0234375 16.96484375 C3.05796152 21.79964931 -1.37275873 22.60750616 -8.06982422 22.54760742 C-9.11154785 22.52029541 -10.15327148 22.4929834 -11.2265625 22.46484375 C-14.5678125 22.40296875 -17.9090625 22.34109375 -21.3515625 22.27734375 C-20.3615625 15.34734375 -19.3715625 8.41734375 -18.3515625 1.27734375 C-12.18874009 -1.18778521 -6.4625735 -1.98600681 0 0 Z " fill="#FAFDF7" transform="translate(92.3515625,69.72265625)"/>
<path d="M0 0 C3.11116179 1.71239349 5.38689318 3.77378636 7 7 C7.64289334 10.99570417 7.84981258 14.54509935 5.765625 18.11328125 C2.3523431 22.19401184 0.1639498 23.79585379 -5.3125 24.3125 C-10.63683069 23.86128553 -13.44759882 21.75271101 -16.9375 17.8125 C-18.51546454 13.63553505 -18.43228119 10.23005327 -17 6 C-12.89571345 -0.1127672 -7.00596488 -1.57864669 0 0 Z " fill="#F5F5F5" transform="translate(190,26)"/>
<path d="M0 0 C13.00793883 0.32299622 24.29931588 5.42806327 34 14 C38.41448594 18.76484197 40.88346637 23.85359198 41.125 30.375 C41.08375 31.24125 41.0425 32.1075 41 33 C40.443125 32.236875 39.88625 31.47375 39.3125 30.6875 C37.03320631 28.03859112 35.06400128 26.61711178 32 25 C32.0825 26.19625 32.165 27.3925 32.25 28.625 C32.24203716 33.13196864 30.93235061 35.51288035 28 39 C23.57894737 43 23.57894737 43 21 43 C20.67 31.12 20.34 19.24 20 7 C17.525 6.505 17.525 6.505 15 6 C14.67 6.33 14.34 6.66 14 7 C12.33382885 7.04063832 10.66611905 7.042721 9 7 C8.67 5.35 8.34 3.7 8 2 C5.36 1.67 2.72 1.34 0 1 C0 0.67 0 0.34 0 0 Z " fill="#649A43" transform="translate(96,55)"/>
<path d="M0 0 C3.12291165 1.68012647 5.39164837 3.78329674 7 7 C7.79674298 13.71540516 7.79674298 13.71540516 5.73046875 17.046875 C2.3783672 20.99436199 0.56996877 22.84300312 -4.75 23.375 C-8.02646841 23.33925671 -9.81497451 22.80558697 -12.375 20.75 C-15.59304578 17.37871394 -16.7772529 15.70772777 -17.375 11.125 C-16.89861498 7.15512486 -15.46959574 5.10463464 -13 2 C-8.7581081 -0.82792793 -4.98126257 -0.78122286 0 0 Z " fill="#364897" transform="translate(121,34)"/>
<path d="M0 0 C-7.4048583 2.88663968 -7.4048583 2.88663968 -10.625 3.5 C-13.70754598 4.14895705 -16.2061997 5.57205762 -19 7 C-19.66 7 -20.32 7 -21 7 C-21.33 7.99 -21.66 8.98 -22 10 C-22.763125 9.938125 -23.52625 9.87625 -24.3125 9.8125 C-27.04525312 9.74101915 -27.04525312 9.74101915 -28.8125 11.5 C-29.204375 11.995 -29.59625 12.49 -30 13 C-29.34 14.32 -28.68 15.64 -28 17 C-28.51949219 17.29132813 -29.03898437 17.58265625 -29.57421875 17.8828125 C-34.4293677 20.73667085 -37.57909272 23.54245415 -41 28 C-41.33 28 -41.66 28 -42 28 C-42.58262348 23.33901216 -42.2569792 20.80472217 -39.5 16.9375 C-31.56708434 7.35882794 -12.81910417 -4.50985351 0 0 Z " fill="#89BA57" transform="translate(62,53)"/>
<path d="M0 0 C0.33 0 0.66 0 1 0 C1 2.64 1 5.28 1 8 C-9.64173153 11.31076092 -20.0710048 12.33734945 -31.1875 12.625 C-32.42564453 12.66367188 -33.66378906 12.70234375 -34.93945312 12.7421875 C-37.95941753 12.83546825 -40.97968731 12.91877432 -44 13 C-44.99 20.26 -45.98 27.52 -47 35 C-47.33 35 -47.66 35 -48 35 C-48 27 -48 19 -48 11 C-44.64070287 8.76046858 -44.20732533 8.83040244 -40.4375 9.375 C-35.24364533 10.00546791 -30.22694896 10.16498261 -25 10 C-23.88496094 9.97164062 -22.76992187 9.94328125 -21.62109375 9.9140625 C-19.89052734 9.83285156 -19.89052734 9.83285156 -18.125 9.75 C-17.05507812 9.70359375 -15.98515625 9.6571875 -14.8828125 9.609375 C-11.41117956 8.87553389 -10.27836957 7.64535527 -8 5 C-5.67166989 3.6594463 -3.56251806 2.85417269 -1 2 C-0.67 1.34 -0.34 0.68 0 0 Z " fill="#84B457" transform="translate(113,93)"/>
<path d="M0 0 C3.125 1.6875 3.125 1.6875 5 4 C5.3125 6.75 5.3125 6.75 5 9 C4.34 9 3.68 9 3 9 C2.67 9.99 2.34 10.98 2 12 C1.29875 11.505 0.5975 11.01 -0.125 10.5 C-3.37119719 8.8063319 -5.39340156 8.74837685 -9 9 C-9 8.34 -9 7.68 -9 7 C-9.598125 7.350625 -10.19625 7.70125 -10.8125 8.0625 C-13 9 -13 9 -16 8 C-13.3296973 -0.23343332 -7.95787301 -1.15704131 0 0 Z " fill="#263C95" transform="translate(121,34)"/>
<path d="M0 0 C0 0.99 0 1.98 0 3 C1.1446875 3.061875 1.1446875 3.061875 2.3125 3.125 C5 4 5 4 6.6171875 6.54296875 C8.21925286 10.54813214 8.61975517 13.91957881 8.8125 18.1875 C8.88887695 19.25387695 8.88887695 19.25387695 8.96679688 20.34179688 C9.17955741 24.17509266 9.18679381 25.71980929 7 29 C7 29.99 7 30.98 7 32 C6.814375 32.680625 6.62875 33.36125 6.4375 34.0625 C5.76986497 36.0674281 5.76986497 36.0674281 7 38 C6.236875 38.680625 5.47375 39.36125 4.6875 40.0625 C1.78708964 43.23271598 0.60805132 46.05296493 -1 50 C-2.6875 51.9375 -2.6875 51.9375 -4 53 C-4.66 52.67 -5.32 52.34 -6 52 C-5.07767578 50.35064453 -5.07767578 50.35064453 -4.13671875 48.66796875 C5.44521204 31.32325789 5.44521204 31.32325789 5.49609375 11.92578125 C4.46525953 9.1160217 3.17737717 7.1662911 1 5.125 C-3.55353607 3.41742397 -8.17078795 3.24526646 -13 3 C-12 1 -12 1 -10.4375 0.375 C-6.93601819 -0.16368951 -3.54193167 -0.05903219 0 0 Z " fill="#8DBF57" transform="translate(47,66)"/>
<path d="M0 0 C3.11116179 1.71239349 5.38689318 3.77378636 7 7 C7.64289334 10.99570417 7.84981258 14.54509935 5.765625 18.11328125 C2.3523431 22.19401184 0.1639498 23.79585379 -5.3125 24.3125 C-10.63683069 23.86128553 -13.44759882 21.75271101 -16.9375 17.8125 C-18.51546454 13.63553505 -18.43228119 10.23005327 -17 6 C-12.89571345 -0.1127672 -7.00596488 -1.57864669 0 0 Z M-14 5 C-16.34965355 8.20407303 -16.54561533 11.10274765 -16 15 C-14.17452064 17.92483867 -12.13141589 20.43429205 -9 22 C-3.18654053 22.53365513 -3.18654053 22.53365513 1.9375 20.125 C4.75097261 17.22627065 4.96221778 16.37782221 5.375 12.25 C5.31148252 8.76289029 4.86754589 7.7723445 3 4.5625 C-0.20685721 1.82330947 -1.88823275 0.98734168 -6.00390625 0.76171875 C-9.44405138 1.17238187 -11.45378542 2.7569062 -14 5 Z " fill="#272727" transform="translate(190,26)"/>
<path d="M0 0 C0.66 0 1.32 0 2 0 C1.88204476 1.45892004 1.75508849 2.91711177 1.625 4.375 C1.55539063 5.18710938 1.48578125 5.99921875 1.4140625 6.8359375 C0.83380144 11.2700079 -0.08617698 15.62417296 -1 20 C2.3756301 19.88936784 5.75021989 19.75891985 9.125 19.625 C10.55199219 19.57859375 10.55199219 19.57859375 12.0078125 19.53125 C17.01710348 19.32252954 21.30366613 18.94494635 26 17 C26 17.66 26 18.32 26 19 C25.34 19 24.68 19 24 19 C24 19.66 24 20.32 24 21 C22.23103898 21.36340286 20.45973374 21.71540883 18.6875 22.0625 C17.20830078 22.35833984 17.20830078 22.35833984 15.69921875 22.66015625 C13 23 13 23 10 22 C9.67 22.66 9.34 23.32 9 24 C8.071875 23.67 7.14375 23.34 6.1875 23 C3.07970709 21.85032996 3.07970709 21.85032996 0 22 C-1.33981486 21.6937566 -2.67511887 21.36548445 -4 21 C-3.67 18.69 -3.34 16.38 -3 14 C-4.98 14.99 -4.98 14.99 -7 16 C-5.97647513 13.01471913 -4.9929683 10.99168981 -2.9375 8.5625 C-0.72972128 5.64253459 -0.33500944 3.60135148 0 0 Z " fill="#89BA53" transform="translate(72,72)"/>
<path d="M0 0 C1.875 1.125 1.875 1.125 3 3 C3.39365568 6.14924548 3.52854531 8.11909116 1.875 10.875 C-0.88090884 12.52854531 -2.85075452 12.39365568 -6 12 C-7.875 10.875 -7.875 10.875 -9 9 C-9.39365568 5.85075452 -9.52854531 3.88090884 -7.875 1.125 C-5.11909116 -0.52854531 -3.14924548 -0.39365568 0 0 Z " fill="#F6F9FC" transform="translate(119,44)"/>
<path d="M0 0 C6.8359375 -0.1953125 6.8359375 -0.1953125 9 0 C9.66 0.66 10.32 1.32 11 2 C10.71395102 3.67542976 10.38218767 5.34385343 10 7 C10.33 7.33 10.66 7.66 11 8 C11.04080783 9.99958364 11.04254356 12.00045254 11 14 C10.01 13.67 9.02 13.34 8 13 C8 11.68 8 10.36 8 9 C6.02 9 4.04 9 2 9 C2 10.32 2 11.64 2 13 C1.34 13 0.68 13 0 13 C0 8.71 0 4.42 0 0 Z " fill="#393939" transform="translate(180,31)"/>
<path d="M0 0 C0.33 0.99 0.66 1.98 1 3 C0.01 4.485 0.01 4.485 -1 6 C-1.268125 6.969375 -1.53625 7.93875 -1.8125 8.9375 C-3.44234274 13.14077863 -6.03304875 15.01652437 -10 17 C-12.04055005 17.07065617 -14.08334257 17.08421976 -16.125 17.0625 C-17.22070312 17.05347656 -18.31640625 17.04445312 -19.4453125 17.03515625 C-20.70988281 17.01775391 -20.70988281 17.01775391 -22 17 C-22 16.34 -22 15.68 -22 15 C-19.03 15.495 -19.03 15.495 -16 16 C-16 15.34 -16 14.68 -16 14 C-14.02 14 -12.04 14 -10 14 C-10 10.7 -10 7.4 -10 4 C-7.03 4.495 -7.03 4.495 -4 5 C-3.896875 4.360625 -3.79375 3.72125 -3.6875 3.0625 C-3.460625 2.381875 -3.23375 1.70125 -3 1 C-2.01 0.67 -1.02 0.34 0 0 Z " fill="#39792E" transform="translate(58,148)"/>
<path d="M0 0 C-1.98 0.99 -1.98 0.99 -4 2 C-3.01 2.66 -2.02 3.32 -1 4 C-2.98 4 -4.96 4 -7 4 C-7 8.29 -7 12.58 -7 17 C-6.34 17.33 -5.68 17.66 -5 18 C-6.32 18.33 -7.64 18.66 -9 19 C-11.47926262 16.36578346 -12.88584206 14.6706779 -13.5 11.0625 C-12.86434571 7.16911746 -11.48666337 5.03925523 -9 2 C-6.00889434 -0.12272015 -3.61562381 -0.20086799 0 0 Z " fill="#F2F2F2" transform="translate(187,27)"/>
<path d="M0 0 C4.84199988 0.60524999 9.49774332 0.70366543 14.375 0.625 C14.375 0.955 14.375 1.285 14.375 1.625 C5.465 2.615 5.465 2.615 -3.625 3.625 C-4.615 10.885 -5.605 18.145 -6.625 25.625 C-6.955 25.625 -7.285 25.625 -7.625 25.625 C-7.625 17.625 -7.625 9.625 -7.625 1.625 C-4.2566733 -0.62055114 -3.78914239 -0.54130606 0 0 Z " fill="#88C14E" transform="translate(72.625,102.375)"/>
<path d="M0 0 C0 1.32 0 2.64 0 4 C-1.32 3.67 -2.64 3.34 -4 3 C-6.56388043 6.55272105 -6.56388043 6.55272105 -6.6875 10.8125 C-6.460625 11.534375 -6.23375 12.25625 -6 13 C-4.02 12.67 -2.04 12.34 0 12 C-1.15173355 14.46800047 -2.04783565 16.04783565 -4 18 C-3.34 18.33 -2.68 18.66 -2 19 C-2.66 19 -3.32 19 -4 19 C-4.33 19.66 -4.66 20.32 -5 21 C-7.7165476 18.62302085 -8.897782 16.72044036 -9.40625 13.13671875 C-9.64986793 4.82325706 -9.64986793 4.82325706 -7.140625 1.64453125 C-4.55318833 -0.34326225 -3.18645754 -0.35405084 0 0 Z " fill="#326A35" transform="translate(32,140)"/>
<path d="M0 0 C2 2 2 2 2.5 5.6875 C2.41759055 10.20353763 0.52372766 12.45430811 -2.4921875 15.65234375 C-6.03344423 18.81745663 -9.45766207 18.07326351 -14 18 C-14 17.67 -14 17.34 -14 17 C-12.88625 16.87625 -11.7725 16.7525 -10.625 16.625 C-6.96896323 16.3534187 -6.96896323 16.3534187 -5 14 C-4.65509678 9.94738713 -4.69836118 8.45245824 -7 5 C-5.68 5.33 -4.36 5.66 -3 6 C-2.67 5.34 -2.34 4.68 -2 4 C-1.34 4 -0.68 4 0 4 C0 2.68 0 1.36 0 0 Z " fill="#475598" transform="translate(126,39)"/>
<path d="M0 0 C0.33 0 0.66 0 1 0 C1.33 10.89 1.66 21.78 2 33 C-0.475 33.495 -0.475 33.495 -3 34 C-2.69221215 29.45800115 -2.37794222 24.91647316 -2.0625 20.375 C-1.97548828 19.08980469 -1.88847656 17.80460937 -1.79882812 16.48046875 C-1.71181641 15.23652344 -1.62480469 13.99257812 -1.53515625 12.7109375 C-1.456604 11.56931152 -1.37805176 10.42768555 -1.29711914 9.25146484 C-1.01174418 6.1285201 -0.55771853 3.08481678 0 0 Z " fill="#ABD791" transform="translate(116,66)"/>
<path d="M0 0 C1.12591553 0.00523682 2.25183105 0.01047363 3.41186523 0.01586914 C4.62680664 0.0190918 5.84174805 0.02231445 7.09350586 0.02563477 C8.37290039 0.03401367 9.65229492 0.04239258 10.97045898 0.05102539 C12.2537207 0.05553711 13.53698242 0.06004883 14.85913086 0.06469727 C18.04211921 0.07652994 21.22501661 0.09301471 24.40795898 0.11352539 C21.27866721 1.94422443 19.03152752 2.3528372 15.42358398 2.30883789 C14.48901367 2.30239258 13.55444336 2.29594727 12.59155273 2.28930664 C11.6234668 2.27254883 10.65538086 2.25579102 9.65795898 2.23852539 C8.6744043 2.22950195 7.69084961 2.22047852 6.67749023 2.21118164 C4.25406491 2.18765324 1.83113677 2.15477907 -0.59204102 2.11352539 C-1.25204102 4.42352539 -1.91204102 6.73352539 -2.59204102 9.11352539 C-2.92204102 9.11352539 -3.25204102 9.11352539 -3.59204102 9.11352539 C-3.68969727 2.96118164 -3.68969727 2.96118164 -3.59204102 1.11352539 C-2.59204102 0.11352539 -2.59204102 0.11352539 0 0 Z " fill="#E3F5CE" transform="translate(71.592041015625,104.886474609375)"/>
<path d="M0 0 C1.0828125 0.5259375 1.0828125 0.5259375 2.1875 1.0625 C5.3122705 2.10409017 6.88161996 1.89096572 10 1 C9.484375 1.37125 8.96875 1.7425 8.4375 2.125 C4.06119033 5.49139205 -0.13555812 9.05333595 -4 13 C-4.45732667 7.28341664 -3.52273754 4.51350747 0 0 Z " fill="#93C45A" transform="translate(24,68)"/>
<path d="M0 0 C0.495 2.475 0.495 2.475 1 5 C0.17242187 4.86722656 -0.65515625 4.73445313 -1.5078125 4.59765625 C-12.97532931 2.90105819 -24.42207375 2.39032066 -36 2 C-36 1.67 -36 1.34 -36 1 C-35.04109863 1.00523682 -34.08219727 1.01047363 -33.09423828 1.01586914 C-29.54216441 1.03394679 -25.99009463 1.04544215 -22.43798828 1.05493164 C-20.89956987 1.05996552 -19.36115625 1.06679308 -17.82275391 1.07543945 C-15.61359474 1.08754639 -13.40449874 1.09323769 -11.1953125 1.09765625 C-10.50567413 1.10281754 -9.81603577 1.10797882 -9.10549927 1.11329651 C-5.82478507 1.11368338 -3.08646761 0 0 0 Z " fill="#E2F2D7" transform="translate(100,50)"/>
<path d="M0 0 C0.33 0 0.66 0 1 0 C2.25 7.625 2.25 7.625 0 11 C0.33 11.99 0.66 12.98 1 14 C-0.28745036 14.38922918 -1.58019597 14.76098036 -2.875 15.125 C-3.95394531 15.43824219 -3.95394531 15.43824219 -5.0546875 15.7578125 C-5.69664063 15.83773437 -6.33859375 15.91765625 -7 16 C-7.66 15.34 -8.32 14.68 -9 14 C-8.01 14 -7.02 14 -6 14 C-6 13.34 -6 12.68 -6 12 C-5.34 12 -4.68 12 -4 12 C-3.814375 11.1028125 -3.814375 11.1028125 -3.625 10.1875 C-3 8 -3 8 -1 5 C-0.61500109 3.34450469 -0.27206865 1.6777567 0 0 Z " fill="#76B23E" transform="translate(102,79)"/>
<path d="M0 0 C1.54571278 2.31856917 2.79618552 4.50638429 4 7 C4.33 5.35 4.66 3.7 5 2 C5.66 2 6.32 2 7 2 C7.33 1.34 7.66 0.68 8 0 C8.66 0.33 9.32 0.66 10 1 C8.5666944 6.01656959 6.09436048 8.01452882 2 11 C1.34 11 0.68 11 0 11 C0 7.37 0 3.74 0 0 Z " fill="#74A350" transform="translate(117,87)"/>
<path d="M0 0 C0.33 0 0.66 0 1 0 C0.56959133 10.73869638 -2.01232372 20.46641306 -7 30 C-7.6875 28.4375 -7.6875 28.4375 -8 26 C-7.28532616 24.27828575 -6.56332062 22.55800122 -5.76171875 20.875 C-4.60207173 18.02048427 -4.4169278 15.03761679 -4 12 C-3.34 11.34 -2.68 10.68 -2 10 C-1.32059533 7.57284794 -1.32059533 7.57284794 -0.875 4.875 C-0.62363281 3.50988281 -0.62363281 3.50988281 -0.3671875 2.1171875 C-0.24601562 1.41851562 -0.12484375 0.71984375 0 0 Z " fill="#79A556" transform="translate(64,128)"/>
<path d="M0 0 C0.33 1.32 0.66 2.64 1 4 C-6.23706897 10.13577586 -6.23706897 10.13577586 -13.125 10.0625 C-14.22070312 10.05347656 -15.31640625 10.04445312 -16.4453125 10.03515625 C-17.70988281 10.01775391 -17.70988281 10.01775391 -19 10 C-19 9.34 -19 8.68 -19 8 C-16.03 8.495 -16.03 8.495 -13 9 C-13 8.34 -13 7.68 -13 7 C-10.69 7 -8.38 7 -6 7 C-5.62875 5.824375 -5.62875 5.824375 -5.25 4.625 C-3.84610901 1.67682892 -2.99324263 1.0975223 0 0 Z " fill="#477A40" transform="translate(55,155)"/>
<path d="M0 0 C2.97 0 5.94 0 9 0 C9.33 1.32 9.66 2.64 10 4 C7.36 3.34 4.72 2.68 2 2 C2 3.65 2 5.3 2 7 C3.65 7 5.3 7 7 7 C7 7.33 7 7.66 7 8 C5.35 8 3.7 8 2 8 C2 9.65 2 11.3 2 13 C1.34 13 0.68 13 0 13 C0 8.71 0 4.42 0 0 Z " fill="#090909" transform="translate(180,31)"/>
<path d="M0 0 C0 0.99 0 1.98 0 3 C-0.78375 3.226875 -1.5675 3.45375 -2.375 3.6875 C-5.2197245 4.74653828 -5.2197245 4.74653828 -6 7.5 C-7 10 -7 10 -9.5 11.25 C-10.325 11.4975 -11.15 11.745 -12 12 C-12.99 12.495 -12.99 12.495 -14 13 C-12.53449366 8.47025314 -10.3645429 5.3645429 -7 2 C-4.6381173 0.9660638 -2.55408611 0.5008012 0 0 Z " fill="#497D3F" transform="translate(38,130)"/>
<path d="M0 0 C0.99 0.33 1.98 0.66 3 1 C2.67 3.31 2.34 5.62 2 8 C2.66 8.33 3.32 8.66 4 9 C3.01 9.495 3.01 9.495 2 10 C1.34444881 12.52733235 1.34444881 12.52733235 1 15 C0.34 14.67 -0.32 14.34 -1 14 C-1.484375 11.85546875 -1.484375 11.85546875 -1.75 9.1875 C-1.84796875 8.31480469 -1.9459375 7.44210938 -2.046875 6.54296875 C-1.99616561 3.79198442 -1.41135409 2.32873426 0 0 Z " fill="#64A139" transform="translate(120,80)"/>
<path d="M0 0 C-1.98 0.99 -1.98 0.99 -4 2 C-3.01 2.66 -2.02 3.32 -1 4 C-2.98 4 -4.96 4 -7 4 C-7 8.29 -7 12.58 -7 17 C-6.34 17.33 -5.68 17.66 -5 18 C-5.99 18 -6.98 18 -8 18 C-8.33 13.71 -8.66 9.42 -9 5 C-9.99 5.495 -9.99 5.495 -11 6 C-10.03628506 3.59071265 -9.34789837 2.23992991 -7.1875 0.75 C-4.67678635 -0.11081611 -2.63651351 -0.14647297 0 0 Z " fill="#C2C2C2" transform="translate(187,27)"/>
<path d="M0 0 C-0.66 0.66 -1.32 1.32 -2 2 C-1.67 2.99 -1.34 3.98 -1 5 C-2.98 5.66 -4.96 6.32 -7 7 C-7.66 5.68 -8.32 4.36 -9 3 C-6.38220849 -0.01046024 -3.86655673 -1.93327837 0 0 Z " fill="#8AC34D" transform="translate(34,64)"/>
<path d="M0 0 C0.33 0 0.66 0 1 0 C1.29883729 7.47093223 0.15925507 14.63044989 -1 22 C-1.33 22 -1.66 22 -2 22 C-2.05807043 18.89591193 -2.09361914 15.7919636 -2.125 12.6875 C-2.14175781 11.80642578 -2.15851563 10.92535156 -2.17578125 10.01757812 C-2.18222656 9.17001953 -2.18867187 8.32246094 -2.1953125 7.44921875 C-2.20578613 6.66893311 -2.21625977 5.88864746 -2.22705078 5.0847168 C-2 3 -2 3 0 0 Z " fill="#92C155" transform="translate(67,106)"/>
<path d="M0 0 C2.475 0.99 2.475 0.99 5 2 C3.89300099 5.21029714 2.98396175 6.00968977 0 7.8125 C-0.99 8.204375 -1.98 8.59625 -3 9 C-3.66 8.67 -4.32 8.34 -5 8 C-4.54625 7.4225 -4.0925 6.845 -3.625 6.25 C-2.15886484 4.2199667 -1.05142216 2.26460157 0 0 Z " fill="#334792" transform="translate(131,157)"/>
<path d="M0 0 C3.16115776 1.36983503 3.9927092 1.9890638 6 5 C6.4375 7.875 6.4375 7.875 6 11 C3.5 13.875 3.5 13.875 1 16 C1.33 15.29875 1.66 14.5975 2 13.875 C3.11386866 10.67262761 3.37398428 8.36585848 3 5 C2.01 4.34 1.02 3.68 0 3 C0 2.01 0 1.02 0 0 Z " fill="#E9FADC" transform="translate(96,73)"/>
<path d="M0 0 C0.33 0 0.66 0 1 0 C1 6.27 1 12.54 1 19 C0.01 19.33 -0.98 19.66 -2 20 C-1.34 13.4 -0.68 6.8 0 0 Z " fill="#EBFAE3" transform="translate(115,80)"/>
<path d="M0 0 C0.66 0.66 1.32 1.32 2 2 C-1.41099168 2 -4.63088314 1.50854594 -8 1 C-8 1.99 -8 2.98 -8 4 C-10.31 4.33 -12.62 4.66 -15 5 C-10.8503573 -0.53285694 -6.76780808 -1.13795003 0 0 Z " fill="#384792" transform="translate(121,34)"/>
<path d="M0 0 C4.39484471 1.34286922 6.6842714 2.99200819 9 7 C8.75 10.8125 8.75 10.8125 8 14 C7.67 14 7.34 14 7 14 C6.731875 12.741875 6.46375 11.48375 6.1875 10.1875 C4.95161309 5.25265578 3.20047921 3.80031947 -1 1 C-0.67 0.67 -0.34 0.34 0 0 Z " fill="#3D3D3D" transform="translate(188,26)"/>
<path d="M0 0 C0.99 0.495 0.99 0.495 2 1 C2.4140625 3.50390625 2.4140625 3.50390625 2.625 6.5625 C2.69976562 7.57441406 2.77453125 8.58632812 2.8515625 9.62890625 C2.92503906 10.80259766 2.92503906 10.80259766 3 12 C3.66 12 4.32 12 5 12 C4.34 13.32 3.68 14.64 3 16 C0.89424625 10.47239641 -0.37851209 5.93002267 0 0 Z " fill="#37458A" transform="translate(107,142)"/>
<path d="M0 0 C0 3.54682803 -1.07708295 5.11032015 -3.35546875 7.76953125 C-6.39891522 10.04669428 -9.34526677 9.37166779 -13 9 C-13 8.67 -13 8.34 -13 8 C-11.96875 7.79375 -10.9375 7.5875 -9.875 7.375 C-5.33187037 6.11661786 -3.08755593 3.46408714 0 0 Z " fill="#4C5B9E" transform="translate(140,136)"/>
<path d="M0 0 C0.66 0 1.32 0 2 0 C2 3.96 2 7.92 2 12 C0 8 0 8 -1 5 C-1.66 5 -2.32 5 -3 5 C-1.125 1.125 -1.125 1.125 0 0 Z " fill="#3F4D8C" transform="translate(115,99)"/>
<path d="M0 0 C0.33 0 0.66 0 1 0 C1 9 1 9 -1 13 C-1.99 13.33 -2.98 13.66 -4 14 C-3.52188823 12.22888156 -3.0424722 10.45811517 -2.5625 8.6875 C-2.29566406 7.70136719 -2.02882812 6.71523437 -1.75390625 5.69921875 C-1.21920575 3.78482474 -0.62855462 1.88566385 0 0 Z " fill="#97C45C" transform="translate(53,90)"/>
<path d="M0 0 C0 0.66 0 1.32 0 2 C-0.66 2 -1.32 2 -2 2 C-2 2.66 -2 3.32 -2 4 C-7.61 4 -13.22 4 -19 4 C-19 3.67 -19 3.34 -19 3 C-18.10796875 2.95101562 -17.2159375 2.90203125 -16.296875 2.8515625 C-14.54117188 2.73941406 -14.54117188 2.73941406 -12.75 2.625 C-11.00976562 2.52058594 -11.00976562 2.52058594 -9.234375 2.4140625 C-5.88890045 1.98577711 -3.22980133 0 0 0 Z " fill="#93BB68" transform="translate(98,89)"/>
<path d="M0 0 C0 0.33 0 0.66 0 1 C-1.85625 1.37125 -1.85625 1.37125 -3.75 1.75 C-7.54384962 2.68840803 -9.49239246 3.9137138 -12 7 C-12.66 7.66 -13.32 8.32 -14 9 C-14 5 -14 5 -11.5 2.25 C-7.72508407 -0.70310409 -4.65040784 -0.40089723 0 0 Z " fill="#1E1E1E" transform="translate(188,26)"/>
<path d="M0 0 C0.66 0.33 1.32 0.66 2 1 C1.67 3.31 1.34 5.62 1 8 C0.67 7.34 0.34 6.68 0 6 C-1.98 6.99 -1.98 6.99 -4 8 C-2.87548273 5.0280615 -1.77706209 2.66559313 0 0 Z " fill="#7DBD40" transform="translate(69,80)"/>
<path d="M0 0 C1.65 0 3.3 0 5 0 C5.309375 0.78375 5.61875 1.5675 5.9375 2.375 C6.92875038 4.92330128 6.92875038 4.92330128 8 7 C4.78448712 6.65548076 3.97940123 5.97711248 1.75 3.5 C0 1 0 1 0 0 Z " fill="#3D4A8D" transform="translate(105,49)"/>
<path d="M0 0 C0.99 0.495 0.99 0.495 2 1 C4.00800456 0.71887936 6.01014051 0.38932033 8 0 C6.63016497 3.16115776 6.0109362 3.9927092 3 6 C1.5 4.6875 1.5 4.6875 0 3 C0 2.01 0 1.02 0 0 Z " fill="#23642B" transform="translate(24,152)"/>
<path d="M0 0 C0.99 0.495 0.99 0.495 2 1 C1.01 1.495 1.01 1.495 0 2 C0 1.34 0 0.68 0 0 Z M-3 2 C-2.01 2 -1.02 2 0 2 C0 2.66 0 3.32 0 4 C-0.99 4 -1.98 4 -3 4 C-3.66 5.98 -4.32 7.96 -5 10 C-5.99 9.67 -6.98 9.34 -8 9 C-7.24172908 7.82512964 -6.46792245 6.66027408 -5.6875 5.5 C-5.25824219 4.8503125 -4.82898437 4.200625 -4.38671875 3.53125 C-3.70029297 2.77328125 -3.70029297 2.77328125 -3 2 Z " fill="#6E9D4F" transform="translate(40,122)"/>
<path d="M0 0 C7.31571627 0.36578581 7.31571627 0.36578581 10.5625 3.375 C11.036875 4.24125 11.51125 5.1075 12 6 C11.67 6.99 11.34 7.98 11 9 C10.29875 8.236875 9.5975 7.47375 8.875 6.6875 C6.03647396 4.03409522 3.53050949 2.55999257 0 1 C0 0.67 0 0.34 0 0 Z " fill="#7BA55B" transform="translate(90,69)"/>
<path d="M0 0 C1.125 1.6875 1.125 1.6875 2 4 C1.25 6.6875 1.25 6.6875 0 9 C-0.99 9.495 -0.99 9.495 -2 10 C-2.25 3.375 -2.25 3.375 0 0 Z " fill="#9FC168" transform="translate(22,71)"/>
<path d="M0 0 C0.89203125 0.11085938 1.7840625 0.22171875 2.703125 0.3359375 C3.37859375 0.43132812 4.0540625 0.52671875 4.75 0.625 C4.75 0.955 4.75 1.285 4.75 1.625 C0.13 2.285 -4.49 2.945 -9.25 3.625 C-9.25 2.965 -9.25 2.305 -9.25 1.625 C-5.9353333 -0.40407167 -3.8184021 -0.50242133 0 0 Z " fill="#81AD57" transform="translate(83.25,67.375)"/>
<path d="M0 0 C1.65 0 3.3 0 5 0 C5.33 1.32 5.66 2.64 6 4 C4.02 4 2.04 4 0 4 C0 2.68 0 1.36 0 0 Z " fill="#E7E7E7" transform="translate(182,33)"/>
<path d="M0 0 C0.33 0.99 0.66 1.98 1 3 C-0.32 4.32 -1.64 5.64 -3 7 C-3.33 5.35 -3.66 3.7 -4 2 C-2.68 1.34 -1.36 0.68 0 0 Z " fill="#549233" transform="translate(58,148)"/>
<path d="M0 0 C2.97 0.99 5.94 1.98 9 3 C8.01 4.485 8.01 4.485 7 6 C4.03 5.01 1.06 4.02 -2 3 C-1.34 2.67 -0.68 2.34 0 2 C0 1.34 0 0.68 0 0 Z " fill="#E0F0E5" transform="translate(108,54)"/>
<path d="M0 0 C1.65 0.33 3.3 0.66 5 1 C5 1.66 5 2.32 5 3 C1.37 3 -2.26 3 -6 3 C-6 2.34 -6 1.68 -6 1 C-3.03 1.495 -3.03 1.495 0 2 C0 1.34 0 0.68 0 0 Z " fill="#29632F" transform="translate(42,162)"/>
<path d="M0 0 C0.33 0.99 0.66 1.98 1 3 C-0.25 5.1875 -0.25 5.1875 -2 7 C-2.99 7 -3.98 7 -5 7 C-5 5.35 -5 3.7 -5 2 C-4.34 2.66 -3.68 3.32 -3 4 C-2.01 2.68 -1.02 1.36 0 0 Z " fill="#E8F3DD" transform="translate(24,76)"/>
<path d="M0 0 C0.33 0 0.66 0 1 0 C1.04898437 0.67546875 1.09796875 1.3509375 1.1484375 2.046875 C1.22320313 2.93890625 1.29796875 3.8309375 1.375 4.75 C1.44460937 5.63171875 1.51421875 6.5134375 1.5859375 7.421875 C1.99850055 9.99066382 2.71160957 11.75841015 4 14 C2.68 13.67 1.36 13.34 0 13 C0 8.71 0 4.42 0 0 Z " fill="#C6DFCB" transform="translate(22,146)"/>
<path d="M0 0 C2.375 0.6875 2.375 0.6875 5 2 C6.3125 4.625 6.3125 4.625 7 7 C3.42895561 5.12050295 1.45255699 3.82946843 0 0 Z " fill="#414F95" transform="translate(111,158)"/>
<path d="M0 0 C0.33 0 0.66 0 1 0 C1.33 2.31 1.66 4.62 2 7 C0.68 7.99 -0.64 8.98 -2 10 C-2.66 9.67 -3.32 9.34 -4 9 C-3.525625 8.443125 -3.05125 7.88625 -2.5625 7.3125 C-0.87604004 4.81653926 -0.41046893 2.9553763 0 0 Z " fill="#84AD5A" transform="translate(102,79)"/>
<path d="M0 0 C0.66 0.33 1.32 0.66 2 1 C1.67 2.65 1.34 4.3 1 6 C-1.475 5.01 -1.475 5.01 -4 4 C-3.67 3.01 -3.34 2.02 -3 1 C-2.01 0.67 -1.02 0.34 0 0 Z " fill="#F1F8F2" transform="translate(120,56)"/>
<path d="M0 0 C2.475 0.495 2.475 0.495 5 1 C4.34 2.32 3.68 3.64 3 5 C2.01 4.34 1.02 3.68 0 3 C0 2.01 0 1.02 0 0 Z " fill="#428333" transform="translate(50,153)"/>
<path d="M0 0 C0 0.99 0 1.98 0 3 C-2.97 3.66 -5.94 4.32 -9 5 C-6.42595029 1.13892543 -4.38979741 1.05680308 0 0 Z " fill="#568B3B" transform="translate(38,130)"/>
<path d="M0 0 C1.32 0.33 2.64 0.66 4 1 C4 1.66 4 2.32 4 3 C4.99 3 5.98 3 7 3 C7.33 4.65 7.66 6.3 8 8 C6.85073734 7.04578192 5.70569459 6.08647955 4.5625 5.125 C3.92441406 4.59132813 3.28632812 4.05765625 2.62890625 3.5078125 C1 2 1 2 0 0 Z " fill="#DFF1D4" transform="translate(124,64)"/>
<path d="M0 0 C0.33 1.32 0.66 2.64 1 4 C-1.64 4.33 -4.28 4.66 -7 5 C-2.25 1.125 -2.25 1.125 0 0 Z " fill="#94C165" transform="translate(36,59)"/>
<path d="M0 0 C0.99 0.66 1.98 1.32 3 2 C0.69 3.32 -1.62 4.64 -4 6 C-3.6875 4.125 -3.6875 4.125 -3 2 C-2.01 1.34 -1.02 0.68 0 0 Z " fill="#F1FCE1" transform="translate(31,59)"/>
</svg>
